<svg width="800" height="600" viewBox="0 0 800 600" xmlns="http://www.w3.org/2000/svg">
  <rect width="800" height="600" fill="#f8f9fa"/>

  <rect x="0" y="0" width="800" height="60" fill="#2c3e50"/>
  <text x="40" y="35" font-family="Arial" font-size="20" fill="white">Watch Store</text>
  <text x="300" y="35" font-family="Arial" font-size="16" fill="white">Home</text>
  <text x="380" y="35" font-family="Arial" font-size="16" fill="white">Products</text>
  <text x="480" y="35" font-family="Arial" font-size="16" fill="white">Blog</text>
  <text x="550" y="35" font-family="Arial" font-size="16" fill="white">About Us</text>
  <text x="650" y="35" font-family="Arial" font-size="16" fill="white">Cart</text>

  <rect x="0" y="60" width="800" height="300" fill="#333"/>
  <text x="400" y="180" font-family="Arial" font-size="48" fill="white" text-anchor="middle">Premium Timepieces Collection</text>
  <text x="400" y="230" font-family="Arial" font-size="18" fill="white" text-anchor="middle">Discover luxury, vintage, and modern watches crafted for perfection</text>
  <rect x="325" y="260" width="150" height="40" rx="20" fill="#3498db"/>
  <text x="400" y="285" font-family="Arial" font-size="16" fill="white" text-anchor="middle">Explore Collection</text>

  <text x="400" y="420" font-family="Arial" font-size="40" fill="#2c3e50" text-anchor="middle">Featured Collections</text>

  <rect x="50" y="460" width="220" height="100" fill="white" stroke="#ccc"/>
  <text x="160" y="510" font-family="Arial" font-size="16" fill="#333" text-anchor="middle">Product Card</text>

  <rect x="290" y="460" width="220" height="100" fill="white" stroke="#ccc"/>
  <text x="400" y="510" font-family="Arial" font-size="16" fill="#333" text-anchor="middle">Product Card</text>

  <rect x="530" y="460" width="220" height="100" fill="white" stroke="#ccc"/>
  <text x="640" y="510" font-family="Arial" font-size="16" fill="#333" text-anchor="middle">Product Card</text>

  <rect x="0" y="580" width="800" height="20" fill="#2c3e50"/>
  <text x="400" y="595" font-family="Arial" font-size="12" fill="white" text-anchor="middle">© 2025 Watch Store. All rights reserved.</text>
</svg>
